<svg width="138" height="138" viewBox="0 0 138 138" fill="none" xmlns="http://www.w3.org/2000/svg">
    <g filter="url(#filter0_d_2223_1448)">
    <path d="M129 65C129 98.12 102.12 125 69 125C35.88 125 9 98.12 9 65C9 31.88 35.88 5 69 5C102.12 5 129 31.88 129 65Z" fill="#F13B4D"/>
    <path d="M129 65C129 98.12 102.12 125 69 125C35.88 125 9 98.12 9 65C9 31.88 35.88 5 69 5C102.12 5 129 31.88 129 65Z" stroke="#F13B4D" stroke-width="10" stroke-linecap="round" stroke-linejoin="round"/>
    </g>
    <path d="M91.4 86.6L47.4 42.6" stroke="white" stroke-width="10" stroke-linecap="round"/>
    <path d="M47.4 86.6L91.4 42.6" stroke="white" stroke-width="10" stroke-linecap="round"/>
    <defs>
    <filter id="filter0_d_2223_1448" x="0" y="0" width="138" height="138" filterUnits="userSpaceOnUse" color-interpolation-filters="sRGB">
    <feFlood flood-opacity="0" result="BackgroundImageFix"/>
    <feColorMatrix in="SourceAlpha" type="matrix" values="0 0 0 0 0 0 0 0 0 0 0 0 0 0 0 0 0 0 127 0" result="hardAlpha"/>
    <feOffset dy="4"/>
    <feGaussianBlur stdDeviation="2"/>
    <feComposite in2="hardAlpha" operator="out"/>
    <feColorMatrix type="matrix" values="0 0 0 0 0 0 0 0 0 0 0 0 0 0 0 0 0 0 0.25 0"/>
    <feBlend mode="normal" in2="BackgroundImageFix" result="effect1_dropShadow_2223_1448"/>
    <feBlend mode="normal" in="SourceGraphic" in2="effect1_dropShadow_2223_1448" result="shape"/>
    </filter>
    </defs>
    </svg>
    