<svg width="58" height="58" viewBox="0 0 58 58" fill="none" xmlns="http://www.w3.org/2000/svg">
    <g filter="url(#filter0_d_2314_1271)">
    <path d="M49 25C49 36.04 40.04 45 29 45C17.96 45 9 36.04 9 25C9 13.96 17.96 5 29 5C40.04 5 49 13.96 49 25Z" fill="#FFDB87"/>
    <path d="M49 25C49 36.04 40.04 45 29 45C17.96 45 9 36.04 9 25C9 13.96 17.96 5 29 5C40.04 5 49 13.96 49 25Z" stroke="#FFDB87" stroke-width="10" stroke-linecap="round" stroke-linejoin="round"/>
    </g>
    <path d="M28.5013 27.7139V27.1277C28.5013 25.2294 29.6739 24.2243 30.8464 23.4148C31.9909 22.6331 33.1354 21.6281 33.1354 19.7856C33.1354 17.2173 31.0696 15.1514 28.5013 15.1514C25.9329 15.1514 23.8672 17.2173 23.8672 19.7856" stroke="white" stroke-width="4" stroke-linecap="round" stroke-linejoin="round"/>
    <path d="M28.4887 34.3851H28.5139" stroke="white" stroke-width="4" stroke-linecap="round" stroke-linejoin="round"/>
    <defs>
    <filter id="filter0_d_2314_1271" x="0" y="0" width="58" height="58" filterUnits="userSpaceOnUse" color-interpolation-filters="sRGB">
    <feFlood flood-opacity="0" result="BackgroundImageFix"/>
    <feColorMatrix in="SourceAlpha" type="matrix" values="0 0 0 0 0 0 0 0 0 0 0 0 0 0 0 0 0 0 127 0" result="hardAlpha"/>
    <feOffset dy="4"/>
    <feGaussianBlur stdDeviation="2"/>
    <feComposite in2="hardAlpha" operator="out"/>
    <feColorMatrix type="matrix" values="0 0 0 0 0 0 0 0 0 0 0 0 0 0 0 0 0 0 0.25 0"/>
    <feBlend mode="normal" in2="BackgroundImageFix" result="effect1_dropShadow_2314_1271"/>
    <feBlend mode="normal" in="SourceGraphic" in2="effect1_dropShadow_2314_1271" result="shape"/>
    </filter>
    </defs>
    </svg>
    