<svg width="30" height="30" viewBox="0 0 30 30" fill="none" xmlns="http://www.w3.org/2000/svg">
    <path
        d="M4.37491 10C4.37516 8.81493 4.68175 7.65001 5.26493 6.61832C5.84812 5.58663 6.68809 4.72322 7.70333 4.11186C8.71858 3.50051 9.87462 3.16197 11.0593 3.12911C12.2439 3.09625 13.417 3.37017 14.4645 3.92431C15.5121 4.47844 16.3986 5.29396 17.0381 6.29173C17.6776 7.2895 18.0483 8.43563 18.1143 9.6189C18.1802 10.8022 17.9392 11.9824 17.4145 13.045C16.8899 14.1077 16.0994 15.0167 15.1199 15.6838C17.2293 16.4574 19.0589 17.8447 20.3732 19.6669C21.6875 21.4892 22.4265 23.663 22.4949 25.9088C22.492 26.1509 22.3956 26.3826 22.226 26.5553C22.0563 26.7281 21.8264 26.8286 21.5844 26.8358C21.3423 26.8431 21.1069 26.7565 20.9271 26.5943C20.7474 26.432 20.6373 26.2066 20.6199 25.965C20.5455 23.5294 19.5256 21.2184 17.7764 19.5218C16.0272 17.8252 13.6861 16.8764 11.2493 16.8764C8.81247 16.8764 6.4714 17.8252 4.72219 19.5218C2.97299 21.2184 1.9531 23.5294 1.87866 25.965C1.86614 26.2098 1.75826 26.44 1.57811 26.6062C1.39796 26.7724 1.15988 26.8615 0.914876 26.8543C0.66987 26.8471 0.437425 26.7442 0.267336 26.5677C0.0972479 26.3912 0.00304543 26.1551 0.00490997 25.91C0.0730992 23.6641 0.811918 21.4899 2.12627 19.6674C3.44062 17.8449 5.27034 16.4575 7.37991 15.6838C6.45345 15.0533 5.69528 14.2058 5.1715 13.2151C4.64772 12.2244 4.37425 11.1207 4.37491 10ZM11.2499 5.00003C9.92383 5.00003 8.65206 5.52682 7.71438 6.4645C6.77669 7.40218 6.24991 8.67395 6.24991 10C6.24991 11.3261 6.77669 12.5979 7.71438 13.5356C8.65206 14.4732 9.92383 15 11.2499 15C12.576 15 13.8478 14.4732 14.7854 13.5356C15.7231 12.5979 16.2499 11.3261 16.2499 10C16.2499 8.67395 15.7231 7.40218 14.7854 6.4645C13.8478 5.52682 12.576 5.00003 11.2499 5.00003ZM21.6124 10C21.4274 10 21.2474 10.0125 21.0699 10.0375C20.946 10.0597 20.8189 10.0567 20.6961 10.0287C20.5734 10.0007 20.4575 9.94827 20.3555 9.87452C20.2535 9.80077 20.1673 9.70722 20.1022 9.59946C20.0371 9.49169 19.9944 9.37192 19.9766 9.24729C19.9588 9.12266 19.9663 8.99572 19.9986 8.87404C20.0309 8.75236 20.0874 8.63844 20.1647 8.53907C20.242 8.4397 20.3385 8.35691 20.4485 8.29566C20.5585 8.2344 20.6797 8.19593 20.8049 8.18253C22.0481 8.00279 23.3158 8.24153 24.4085 8.86119C25.5012 9.48084 26.3568 10.4462 26.8407 11.6054C27.3246 12.7646 27.4093 14.0518 27.0815 15.2645C26.7537 16.4771 26.0319 17.5463 25.0299 18.3038C26.5029 18.9633 27.7536 20.035 28.631 21.3896C29.5084 22.7441 29.9752 24.3236 29.9749 25.9375C29.9749 26.1862 29.8761 26.4246 29.7003 26.6004C29.5245 26.7763 29.286 26.875 29.0374 26.875C28.7888 26.875 28.5503 26.7763 28.3745 26.6004C28.1987 26.4246 28.0999 26.1862 28.0999 25.9375C28.0998 24.5427 27.6503 23.185 26.8182 22.0656C25.9861 20.9462 24.8155 20.1246 23.4799 19.7225L22.8124 19.5225V17.4275L23.3249 17.1663C24.0846 16.7815 24.6924 16.1518 25.0503 15.3791C25.4081 14.6063 25.4951 13.7355 25.2972 12.9072C25.0993 12.079 24.628 11.3415 23.9594 10.8141C23.2908 10.2866 22.464 9.99981 21.6124 10Z"
        fill="black" />
</svg>