<svg width="19" height="18" viewBox="0 0 19 18" fill="none" xmlns="http://www.w3.org/2000/svg">
    <path
        d="M9.5 17.5C8.38376 17.5 7.27846 17.2801 6.24719 16.853C5.21592 16.4258 4.27889 15.7997 3.48959 15.0104C2.70029 14.2211 2.07419 13.2841 1.64702 12.2528C1.21986 11.2215 1 10.1162 1 9C1 7.88376 1.21986 6.77846 1.64702 5.74719C2.07419 4.71592 2.70029 3.77889 3.48959 2.98959C4.27889 2.20029 5.21592 1.57419 6.24719 1.14702C7.27846 0.719859 8.38376 0.5 9.5 0.5C11.7543 0.5 13.9163 1.39553 15.5104 2.98959C17.1045 4.58365 18 6.74566 18 9C18 11.2543 17.1045 13.4163 15.5104 15.0104C13.9163 16.6045 11.7543 17.5 9.5 17.5Z"
        stroke="black" />
</svg>