<svg width="17" height="17" viewBox="0 0 17 17" fill="none" xmlns="http://www.w3.org/2000/svg">
    <path fill-rule="evenodd" clip-rule="evenodd"
        d="M4.29248 3.09054C4.45183 3.24994 4.54135 3.4661 4.54135 3.69149C4.54135 3.91688 4.45183 4.13304 4.29248 4.29244C3.73991 4.84496 3.30158 5.50091 3.00253 6.22284C2.70347 6.94476 2.54955 7.71853 2.54955 8.49994C2.54955 9.28136 2.70347 10.0551 3.00253 10.7771C3.30158 11.499 3.73991 12.1549 4.29248 12.7074C4.37366 12.7859 4.43842 12.8796 4.48297 12.9833C4.52751 13.0871 4.55096 13.1986 4.55194 13.3115C4.55292 13.4243 4.53142 13.5362 4.48868 13.6407C4.44594 13.7452 4.38283 13.8401 4.30302 13.9199C4.22321 13.9997 4.1283 14.0628 4.02384 14.1055C3.91938 14.1483 3.80745 14.1698 3.69459 14.1688C3.58173 14.1678 3.47019 14.1444 3.36649 14.0998C3.26278 14.0553 3.16899 13.9905 3.09058 13.9093C2.3802 13.199 1.8167 12.3556 1.43225 11.4275C1.04779 10.4993 0.849915 9.50456 0.849915 8.49994C0.849915 7.49532 1.04779 6.50054 1.43225 5.57239C1.8167 4.64425 2.3802 3.80091 3.09058 3.09054C3.24998 2.93119 3.46614 2.84167 3.69153 2.84167C3.91692 2.84167 4.13308 2.93119 4.29248 3.09054ZM12.7075 3.09054C12.8669 2.93119 13.083 2.84167 13.3084 2.84167C13.5338 2.84167 13.75 2.93119 13.9094 3.09054C14.6198 3.80091 15.1833 4.64425 15.5677 5.57239C15.9522 6.50054 16.15 7.49532 16.15 8.49994C16.15 9.50456 15.9522 10.4993 15.5677 11.4275C15.1833 12.3556 14.6198 13.199 13.9094 13.9093C13.831 13.9905 13.7372 14.0553 13.6335 14.0998C13.5298 14.1444 13.4182 14.1678 13.3054 14.1688C13.1925 14.1698 13.0806 14.1483 12.9761 14.1055C12.8717 14.0628 12.7768 13.9997 12.6969 13.9199C12.6171 13.8401 12.554 13.7452 12.5113 13.6407C12.4685 13.5362 12.447 13.4243 12.448 13.3115C12.449 13.1986 12.4724 13.0871 12.517 12.9833C12.5615 12.8796 12.6263 12.7859 12.7075 12.7074C13.2601 12.1549 13.6984 11.499 13.9974 10.7771C14.2965 10.0551 14.4504 9.28136 14.4504 8.49994C14.4504 7.71853 14.2965 6.94476 13.9974 6.22284C13.6984 5.50091 13.2601 4.84496 12.7075 4.29244C12.5481 4.13304 12.4586 3.91688 12.4586 3.69149C12.4586 3.4661 12.5481 3.24994 12.7075 3.09054ZM6.69713 5.49434C6.85648 5.65374 6.946 5.8699 6.946 6.09529C6.946 6.32068 6.85648 6.53684 6.69713 6.69624C6.4603 6.93304 6.27243 7.21417 6.14425 7.52358C6.01607 7.83298 5.9501 8.16461 5.9501 8.49952C5.9501 8.83443 6.01607 9.16605 6.14425 9.47546C6.27243 9.78487 6.4603 10.066 6.69713 10.3028C6.77605 10.3818 6.83864 10.4755 6.88133 10.5787C6.92402 10.6818 6.94597 10.7924 6.94593 10.904C6.94589 11.0157 6.92386 11.1262 6.8811 11.2294C6.83834 11.3325 6.77568 11.4262 6.69671 11.5051C6.61773 11.584 6.52399 11.6466 6.42083 11.6893C6.31766 11.732 6.2071 11.754 6.09546 11.7539C5.98381 11.7539 5.87326 11.7318 5.77013 11.6891C5.667 11.6463 5.5733 11.5837 5.49438 11.5047C4.69763 10.7077 4.25004 9.62689 4.25004 8.49994C4.25004 7.373 4.69763 6.29219 5.49438 5.49519C5.57332 5.41616 5.66707 5.35347 5.77026 5.31069C5.87344 5.26792 5.98405 5.2459 6.09576 5.2459C6.20746 5.2459 6.31807 5.26792 6.42126 5.31069C6.52444 5.35347 6.61819 5.41531 6.69713 5.49434ZM10.3028 5.49434C10.3818 5.41531 10.4755 5.35262 10.5787 5.30984C10.6819 5.26707 10.7925 5.24505 10.9042 5.24505C11.0159 5.24505 11.1265 5.26707 11.2297 5.30984C11.3329 5.35262 11.4266 5.41531 11.5056 5.49434C11.9003 5.88901 12.2135 6.35757 12.4272 6.87328C12.6408 7.38899 12.7508 7.94173 12.7508 8.49994C12.7508 9.05816 12.6408 9.6109 12.4272 10.1266C12.2135 10.6423 11.9003 11.1109 11.5056 11.5055C11.3461 11.665 11.1298 11.7546 10.9042 11.7546C10.6786 11.7546 10.4623 11.665 10.3028 11.5055C10.1433 11.346 10.0537 11.1297 10.0537 10.9042C10.0537 10.6786 10.1433 10.4623 10.3028 10.3028C10.7809 9.8246 11.0494 9.17611 11.0494 8.49994C11.0494 7.82377 10.7809 7.17529 10.3028 6.69709C10.2238 6.61815 10.1611 6.52441 10.1183 6.42122C10.0756 6.31803 10.0535 6.20742 10.0535 6.09572C10.0535 5.98402 10.0756 5.87341 10.1183 5.77022C10.1611 5.66703 10.2238 5.57329 10.3028 5.49434ZM8.49998 7.64994C8.72541 7.64994 8.94162 7.7395 9.10102 7.8989C9.26043 8.05831 9.34998 8.27451 9.34998 8.49994V8.50844C9.34998 8.73388 9.26043 8.95008 9.10102 9.10948C8.94162 9.26889 8.72541 9.35844 8.49998 9.35844C8.27455 9.35844 8.05835 9.26889 7.89894 9.10948C7.73953 8.95008 7.64998 8.73388 7.64998 8.50844V8.49994C7.64998 8.27451 7.73953 8.05831 7.89894 7.8989C8.05835 7.7395 8.27455 7.64994 8.49998 7.64994Z"
        fill="black" />
</svg>