<svg width="14" height="14" viewBox="0 0 14 14" fill="none" xmlns="http://www.w3.org/2000/svg">
    <path
        d="M10.7123 3.28767C11.1999 3.77518 11.5866 4.35393 11.8504 4.9909C12.1143 5.62786 12.25 6.31055 12.25 7C12.25 7.68945 12.1143 8.37214 11.8504 9.0091C11.5866 9.64607 11.1999 10.2248 10.7123 10.7123M10.7123 10.7123L9.06209 9.06208M10.7123 10.7123L12.25 12.25M9.06267 4.93733C9.33359 5.20818 9.5485 5.52975 9.69512 5.88366C9.84175 6.23758 9.91721 6.61691 9.91721 7C9.91721 7.38309 9.84175 7.76242 9.69512 8.11634C9.5485 8.47025 9.33359 8.79182 9.06267 9.06267L7.41242 7.41242M7.41242 7.41242C7.46813 7.35861 7.51257 7.29424 7.54315 7.22307C7.57372 7.1519 7.58981 7.07535 7.59048 6.9979C7.59116 6.92045 7.5764 6.84363 7.54707 6.77194C7.51773 6.70025 7.47442 6.63512 7.41965 6.58035C7.36488 6.52558 7.29975 6.48227 7.22806 6.45294C7.15637 6.42361 7.07956 6.40885 7.0021 6.40952C6.92465 6.41019 6.8481 6.42629 6.77693 6.45686C6.70576 6.48743 6.6414 6.53187 6.58759 6.58758M7.41242 7.41242L6.58759 6.58758M4.93734 9.06267C4.4902 8.61672 4.20063 8.03716 4.1125 7.41183M3.28767 10.7123C2.59596 10.021 2.11111 9.15016 1.88777 8.19804C1.66442 7.24591 1.71146 6.25033 2.02359 5.3235M6.58759 6.58758L1.75 1.75"
        stroke="black" stroke-width="1.2" stroke-linecap="round" stroke-linejoin="round" />
</svg>