<svg width="28" height="28" viewBox="0 0 28 28" fill="none" xmlns="http://www.w3.org/2000/svg">
    <path
        d="M26.2188 13.4478L14.5522 1.7811C14.4064 1.63624 14.2093 1.55493 14.0038 1.55493C13.7984 1.55493 13.6012 1.63624 13.4555 1.7811L1.78883 13.4478C1.66141 13.5966 1.59483 13.788 1.60239 13.9837C1.60995 14.1794 1.6911 14.3651 1.82961 14.5037C1.96813 14.6422 2.15382 14.7233 2.34957 14.7309C2.54531 14.7384 2.73671 14.6719 2.8855 14.5444L13.9999 3.42999L25.1144 14.5522C25.2632 14.6796 25.4546 14.7462 25.6503 14.7387C25.8461 14.7311 26.0318 14.6499 26.1703 14.5114C26.3088 14.3729 26.3899 14.1872 26.3975 13.9915C26.4051 13.7957 26.3385 13.6043 26.2111 13.4555L26.2188 13.4478Z"
        fill="black" />
    <path
        d="M21.7777 24.8889H17.8888V17.1111H10.1111V24.8889H6.22218V14L4.66663 15.5555V24.8889C4.66663 25.3014 4.83051 25.6971 5.12224 25.9888C5.41396 26.2805 5.80962 26.4444 6.22218 26.4444H11.6666V18.6667H16.3333V26.4444H21.7777C22.1903 26.4444 22.586 26.2805 22.8777 25.9888C23.1694 25.6971 23.3333 25.3014 23.3333 24.8889V15.3689L21.7777 13.8133V24.8889Z"
        fill="black" />
</svg>