<svg width="16" height="15" viewBox="0 0 16 15" fill="none" xmlns="http://www.w3.org/2000/svg">
    <path
        d="M1.20312 0.9375C1.59277 0.9375 1.90625 1.25098 1.90625 1.64062V11.9531C1.90625 12.3428 2.21973 12.6562 2.60938 12.6562H14.7969C15.1865 12.6562 15.5 12.9697 15.5 13.3594C15.5 13.749 15.1865 14.0625 14.7969 14.0625H2.60938C1.44336 14.0625 0.5 13.1191 0.5 11.9531V1.64062C0.5 1.25098 0.813477 0.9375 1.20312 0.9375ZM4.25 3.98438C4.25 3.59473 4.56348 3.28125 4.95312 3.28125H11.0469C11.4365 3.28125 11.75 3.59473 11.75 3.98438C11.75 4.37402 11.4365 4.6875 11.0469 4.6875H4.95312C4.56348 4.6875 4.25 4.37402 4.25 3.98438ZM4.95312 6.09375H9.17188C9.56152 6.09375 9.875 6.40723 9.875 6.79688C9.875 7.18652 9.56152 7.5 9.17188 7.5H4.95312C4.56348 7.5 4.25 7.18652 4.25 6.79688C4.25 6.40723 4.56348 6.09375 4.95312 6.09375ZM4.95312 8.90625H12.9219C13.3115 8.90625 13.625 9.21973 13.625 9.60938C13.625 9.99902 13.3115 10.3125 12.9219 10.3125H4.95312C4.56348 10.3125 4.25 9.99902 4.25 9.60938C4.25 9.21973 4.56348 8.90625 4.95312 8.90625Z"
        fill="black" />
</svg>