<svg width="25" height="25" viewBox="0 0 25 25" fill="none" xmlns="http://www.w3.org/2000/svg">
    <path
        d="M18.75 19.6458H17.9583C17.125 19.6458 16.3333 19.9687 15.75 20.5521L13.9687 22.3125C13.1562 23.1146 11.8334 23.1146 11.0209 22.3125L9.23958 20.5521C8.65624 19.9687 7.85417 19.6458 7.03125 19.6458H6.25C4.52083 19.6458 3.125 18.2604 3.125 16.5521V5.18747C3.125 3.47914 4.52083 2.09375 6.25 2.09375H18.75C20.4792 2.09375 21.875 3.47914 21.875 5.18747V16.5521C21.875 18.25 20.4792 19.6458 18.75 19.6458Z"
        stroke="black" stroke-width="1.5" stroke-miterlimit="10" stroke-linecap="round" stroke-linejoin="round" />
    <path
        d="M12.5 10.4166C13.8404 10.4166 14.9271 9.32998 14.9271 7.98954C14.9271 6.6491 13.8404 5.5625 12.5 5.5625C11.1595 5.5625 10.0729 6.6491 10.0729 7.98954C10.0729 9.32998 11.1595 10.4166 12.5 10.4166Z"
        stroke="black" stroke-width="1.5" stroke-linecap="round" stroke-linejoin="round" />
    <path
        d="M16.6666 16.3125C16.6666 14.4375 14.8021 12.9167 12.5 12.9167C10.1979 12.9167 8.33331 14.4375 8.33331 16.3125"
        stroke="black" stroke-width="1.5" stroke-linecap="round" stroke-linejoin="round" />
</svg>