<svg width="22" height="22" viewBox="0 0 22 22" fill="none" xmlns="http://www.w3.org/2000/svg">
    <path
        d="M5.22501 4.40002C4.42273 4.40002 3.65331 4.71873 3.08601 5.28603C2.51872 5.85332 2.20001 6.62274 2.20001 7.42502V14.575C2.20001 15.3773 2.51872 16.1467 3.08601 16.714C3.65331 17.2813 4.42273 17.6 5.22501 17.6H12.155C12.2375 17.193 12.4091 16.819 12.65 16.5H5.22501C4.71447 16.5 4.22484 16.2972 3.86383 15.9362C3.50282 15.5752 3.30001 15.0856 3.30001 14.575V7.42502C3.30001 6.36242 4.16241 5.50002 5.22501 5.50002H16.775C17.8376 5.50002 18.7 6.36242 18.7 7.42502V10.3411C19.1411 10.5974 19.5184 10.9516 19.8 11.3751V7.42502C19.8 6.62274 19.4813 5.85332 18.914 5.28603C18.3467 4.71873 17.5773 4.40002 16.775 4.40002H5.22501ZM19.25 13.2C19.25 13.7835 19.0182 14.3431 18.6056 14.7557C18.1931 15.1682 17.6335 15.4 17.05 15.4C16.4665 15.4 15.907 15.1682 15.4944 14.7557C15.0818 14.3431 14.85 13.7835 14.85 13.2C14.85 12.6165 15.0818 12.057 15.4944 11.6444C15.907 11.2318 16.4665 11 17.05 11C17.6335 11 18.1931 11.2318 18.6056 11.6444C19.0182 12.057 19.25 12.6165 19.25 13.2ZM20.9 18.15C20.9 19.5195 19.8 20.9 17.05 20.9C14.3 20.9 13.2 19.525 13.2 18.15C13.2 17.7124 13.3739 17.2927 13.6833 16.9833C13.9927 16.6739 14.4124 16.5 14.85 16.5H19.25C19.6876 16.5 20.1073 16.6739 20.4167 16.9833C20.7262 17.2927 20.9 17.7124 20.9 18.15Z"
        fill="black" />
</svg>