<svg width="24" height="24" viewBox="0 0 24 24" fill="none" xmlns="http://www.w3.org/2000/svg">
    <path d="M12.46 6.92C13.8186 6.92 14.92 5.81862 14.92 4.46C14.92 3.10138 13.8186 2 12.46 2C11.1014 2 10 3.10138 10 4.46C10 5.81862 11.1014 6.92 12.46 6.92Z" stroke="black" stroke-width="1.3" stroke-miterlimit="10" stroke-linecap="round" stroke-linejoin="round"/>
    <path d="M12.46 21.53C13.8186 21.53 14.92 20.4286 14.92 19.07C14.92 17.7114 13.8186 16.61 12.46 16.61C11.1014 16.61 10 17.7114 10 19.07C10 20.4286 11.1014 21.53 12.46 21.53Z" stroke="black" stroke-width="1.3" stroke-miterlimit="10" stroke-linecap="round" stroke-linejoin="round"/>
    <path d="M12.46 14.53C13.8186 14.53 14.92 13.4286 14.92 12.07C14.92 10.7114 13.8186 9.60999 12.46 9.60999C11.1014 9.60999 10 10.7114 10 12.07C10 13.4286 11.1014 14.53 12.46 14.53Z" stroke="black" stroke-width="1.3" stroke-miterlimit="10" stroke-linecap="round" stroke-linejoin="round"/>
    </svg>
    