<svg width="24" height="24" viewBox="0 0 24 24" fill="none" xmlns="http://www.w3.org/2000/svg">
    <path d="M6.92 11.54C6.92 10.1814 5.81862 9.08 4.46 9.08C3.10138 9.08 2 10.1814 2 11.54C2 12.8986 3.10138 14 4.46 14C5.81862 14 6.92 12.8986 6.92 11.54Z" fill="black" stroke="black" stroke-width="1.3" stroke-miterlimit="10" stroke-linecap="round" stroke-linejoin="round"/>
    <path d="M21.53 11.54C21.53 10.1814 20.4286 9.08 19.07 9.08C17.7114 9.08 16.61 10.1814 16.61 11.54C16.61 12.8986 17.7114 14 19.07 14C20.4286 14 21.53 12.8986 21.53 11.54Z" fill="black" stroke="black" stroke-width="1.3" stroke-miterlimit="10" stroke-linecap="round" stroke-linejoin="round"/>
    <path d="M14.53 11.54C14.53 10.1814 13.4286 9.08 12.07 9.08C10.7114 9.08 9.60999 10.1814 9.60999 11.54C9.60999 12.8986 10.7114 14 12.07 14C13.4286 14 14.53 12.8986 14.53 11.54Z" fill="black" stroke="black" stroke-width="1.3" stroke-miterlimit="10" stroke-linecap="round" stroke-linejoin="round"/>
    </svg>
    