<svg width="27" height="28" viewBox="0 0 27 28" fill="none" xmlns="http://www.w3.org/2000/svg">
    <path
        d="M10.305 12.6816C10.1925 12.67 10.0575 12.67 9.93375 12.6816C7.25625 12.5883 5.13 10.3133 5.13 7.51331C5.13 4.65498 7.3575 2.33331 10.125 2.33331C12.8813 2.33331 15.12 4.65498 15.12 7.51331C15.1088 10.3133 12.9825 12.5883 10.305 12.6816Z"
        stroke="black" stroke-width="1.5" stroke-linecap="round" stroke-linejoin="round" />
    <path
        d="M18.4612 4.66669C20.6437 4.66669 22.3987 6.49835 22.3987 8.75002C22.3987 10.955 20.7112 12.7517 18.6074 12.8334C18.5174 12.8217 18.4162 12.8217 18.3149 12.8334"
        stroke="black" stroke-width="1.5" stroke-linecap="round" stroke-linejoin="round" />
    <path
        d="M4.68006 16.9867C1.95756 18.8767 1.95756 21.9567 4.68006 23.835C7.77381 25.9817 12.8476 25.9817 15.9413 23.835C18.6638 21.945 18.6638 18.865 15.9413 16.9867C12.8588 14.8517 7.78506 14.8517 4.68006 16.9867Z"
        stroke="black" stroke-width="1.5" stroke-linecap="round" stroke-linejoin="round" />
    <path
        d="M20.6324 23.3333C21.4424 23.1583 22.2074 22.82 22.8374 22.3183C24.5924 20.9533 24.5924 18.7016 22.8374 17.3366C22.2187 16.8466 21.4649 16.52 20.6662 16.3333"
        stroke="black" stroke-width="1.5" stroke-linecap="round" stroke-linejoin="round" />
</svg>