<svg width="24" height="24" viewBox="0 0 24 24" fill="none" xmlns="http://www.w3.org/2000/svg">
    <path d="M8 12V6C8 3.79 9.79 2 12 2C14.21 2 16 3.79 16 6V6.3V11" stroke="black" stroke-width="1.5" stroke-linecap="round" stroke-linejoin="round"/>
    <path d="M9.03998 14.19C9.76998 15 10.83 15.5 12 15.5C14.21 15.5 16 13.71 16 11.5V11" stroke="black" stroke-width="1.5" stroke-linecap="round" stroke-linejoin="round"/>
    <path d="M6.78003 16.95C8.15003 18.22 9.98003 19 12 19C16.22 19 19.65 15.57 19.65 11.35V9.65" stroke="black" stroke-width="1.5" stroke-linecap="round" stroke-linejoin="round"/>
    <path d="M4.34998 9.65V11.35C4.34998 12.41 4.55998 13.41 4.94998 14.33" stroke="black" stroke-width="1.5" stroke-linecap="round" stroke-linejoin="round"/>
    <path d="M12 19V22" stroke="black" stroke-width="1.5" stroke-linecap="round" stroke-linejoin="round"/>
    </svg>
    