<svg width="24" height="24" viewBox="0 0 24 24" fill="none" xmlns="http://www.w3.org/2000/svg">
    <path d="M18.41 18.09L15.59 20.91" stroke="black" stroke-width="1.5" stroke-linecap="round" stroke-linejoin="round"/>
    <path d="M18.41 20.91L15.59 18.09" stroke="black" stroke-width="1.5" stroke-linecap="round" stroke-linejoin="round"/>
    <path d="M12.16 10.87C12.06 10.86 11.94 10.86 11.83 10.87C9.45 10.79 7.56 8.84 7.56 6.44C7.56 3.99 9.54 2 12 2C14.45 2 16.44 3.99 16.44 6.44C16.43 8.84 14.54 10.79 12.16 10.87Z" stroke="black" stroke-width="1.5" stroke-linecap="round" stroke-linejoin="round"/>
    <path d="M12 21.81C10.18 21.81 8.36999 21.35 6.98999 20.43C4.56999 18.81 4.56999 16.17 6.98999 14.56C9.73999 12.72 14.25 12.72 17 14.56" stroke="black" stroke-width="1.5" stroke-linecap="round" stroke-linejoin="round"/>
    </svg>
    