<svg width="50" height="50" viewBox="0 0 50 50" fill="none" xmlns="http://www.w3.org/2000/svg">
    <circle cx="25" cy="25" r="25" fill="#E5E5E5"/>
    <path d="M25.6625 35.5246H17.7625C13.8125 35.5246 12.5 32.8996 12.5 30.2621V19.7371C12.5 15.7871 13.8125 14.4746 17.7625 14.4746H25.6625C29.6125 14.4746 30.925 15.7871 30.925 19.7371V30.2621C30.925 34.2121 29.6 35.5246 25.6625 35.5246Z" stroke="#292D32" stroke-width="1.5" stroke-linecap="round" stroke-linejoin="round"/>
    <path d="M34.4008 31.3742L30.9258 28.9367V21.0492L34.4008 18.6117C36.1008 17.4242 37.5008 18.1492 37.5008 20.2367V29.7617C37.5008 31.8492 36.1008 32.5742 34.4008 31.3742Z" stroke="#292D32" stroke-width="1.5" stroke-linecap="round" stroke-linejoin="round"/>
    <path d="M24.375 23.75C25.4105 23.75 26.25 22.9105 26.25 21.875C26.25 20.8395 25.4105 20 24.375 20C23.3395 20 22.5 20.8395 22.5 21.875C22.5 22.9105 23.3395 23.75 24.375 23.75Z" stroke="#292D32" stroke-width="1.5" stroke-linecap="round" stroke-linejoin="round"/>
    </svg>
    