<svg width="50" height="50" viewBox="0 0 50 50" fill="none" xmlns="http://www.w3.org/2000/svg">
    <circle cx="25" cy="25" r="25" fill="#E5E5E5"/>
    <path d="M25.5 29.125C27.502 29.125 29.125 27.502 29.125 25.5C29.125 23.498 27.502 21.875 25.5 21.875C23.498 21.875 21.875 23.498 21.875 25.5C21.875 27.502 23.498 29.125 25.5 29.125Z" stroke="#292D32" stroke-width="1.5" stroke-miterlimit="10" stroke-linecap="round" stroke-linejoin="round"/>
    <path d="M13.416 26.5624V24.4358C13.416 23.1791 14.4431 22.1399 15.7118 22.1399C17.8989 22.1399 18.7931 20.5933 17.6935 18.6962C17.0652 17.6087 17.4398 16.1949 18.5393 15.5666L20.6298 14.3703C21.5843 13.8024 22.8168 14.1408 23.3848 15.0953L23.5177 15.3249C24.6052 17.222 26.3935 17.222 27.4931 15.3249L27.626 15.0953C28.1939 14.1408 29.4264 13.8024 30.381 14.3703L32.4714 15.5666C33.571 16.1949 33.9456 17.6087 33.3173 18.6962C32.2177 20.5933 33.1119 22.1399 35.2989 22.1399C36.5556 22.1399 37.5948 23.167 37.5948 24.4358V26.5624C37.5948 27.8191 36.5677 28.8583 35.2989 28.8583C33.1119 28.8583 32.2177 30.4049 33.3173 32.302C33.9456 33.4016 33.571 34.8033 32.4714 35.4316L30.381 36.6278C29.4264 37.1958 28.1939 36.8574 27.626 35.9028L27.4931 35.6733C26.4056 33.7762 24.6173 33.7762 23.5177 35.6733L23.3848 35.9028C22.8168 36.8574 21.5843 37.1958 20.6298 36.6278L18.5393 35.4316C17.4398 34.8033 17.0652 33.3895 17.6935 32.302C18.7931 30.4049 17.8989 28.8583 15.7118 28.8583C14.4431 28.8583 13.416 27.8191 13.416 26.5624Z" stroke="#292D32" stroke-width="1.5" stroke-miterlimit="10" stroke-linecap="round" stroke-linejoin="round"/>
    </svg>
    